TITLE ""
FILE "Step3_Track54.mp3" MP3
  TRACK 01 AUDIO
    TITLE "Step3_Track54_01"
    INDEX 01 00:00:00
  TRACK 02 AUDIO
    TITLE "Step3_Track54_02"
    INDEX 01 00:00:22
  TRACK 03 AUDIO
    TITLE "Step3_Track54_03"
    INDEX 01 00:01:72
  TRACK 04 AUDIO
    TITLE "Step3_Track54_04"
    INDEX 01 00:02:56
  TRACK 05 AUDIO
    TITLE "Step3_Track54_05"
    INDEX 01 00:03:56
  TRACK 06 AUDIO
    TITLE "Step3_Track54_06"
    INDEX 01 00:04:06
  TRACK 07 AUDIO
    TITLE "Step3_Track54_07"
    INDEX 01 00:06:66
  TRACK 08 AUDIO
    TITLE "Step3_Track54_08"
    INDEX 01 00:07:14
  TRACK 09 AUDIO
    TITLE "Step3_Track54_09"
    INDEX 01 00:08:10
  TRACK 10 AUDIO
    TITLE "Step3_Track54_10"
    INDEX 01 00:08:18
  TRACK 11 AUDIO
    TITLE "Step3_Track54_11"
    INDEX 01 00:11:20
  TRACK 12 AUDIO
    TITLE "Step3_Track54_12"
    INDEX 01 00:11:30
  TRACK 13 AUDIO
    TITLE "Step3_Track54_13"
    INDEX 01 00:12:23
  TRACK 14 AUDIO
    TITLE "Step3_Track54_14"
    INDEX 01 00:12:39
  TRACK 15 AUDIO
    TITLE "Step3_Track54_15"
    INDEX 01 00:14:57
  TRACK 16 AUDIO
    TITLE "Step3_Track54_16"
    INDEX 01 00:15:02
  TRACK 17 AUDIO
    TITLE "Step3_Track54_17"
    INDEX 01 00:15:75
  TRACK 18 AUDIO
    TITLE "Step3_Track54_18"
    INDEX 01 00:16:09
  TRACK 19 AUDIO
    TITLE "Step3_Track54_19"
    INDEX 01 00:18:24
  TRACK 20 AUDIO
    TITLE "Step3_Track54_20"
    INDEX 01 00:18:34
  TRACK 21 AUDIO
    TITLE "Step3_Track54_21"
    INDEX 01 00:19:35
  TRACK 22 AUDIO
    TITLE "Step3_Track54_22"
    INDEX 01 00:19:57
  TRACK 23 AUDIO
    TITLE "Step3_Track54_23"
    INDEX 01 00:22:71
  TRACK 24 AUDIO
    TITLE "Step3_Track54_24"
    INDEX 01 00:23:31
  TRACK 25 AUDIO
    TITLE "Step3_Track54_25"
    INDEX 01 00:24:32
  TRACK 26 AUDIO
    TITLE "Step3_Track54_26"
    INDEX 01 00:24:46
  TRACK 27 AUDIO
    TITLE "Step3_Track54_27"
    INDEX 01 00:27:35
  TRACK 28 AUDIO
    TITLE "Step3_Track54_28"
    INDEX 01 00:27:46
  TRACK 29 AUDIO
    TITLE "Step3_Track54_29"
    INDEX 01 00:28:52
  TRACK 30 AUDIO
    TITLE "Step3_Track54_30"
    INDEX 01 00:28:60
  TRACK 31 AUDIO
    TITLE "Step3_Track54_31"
    INDEX 01 00:31:30
  TRACK 32 AUDIO
    TITLE "Step3_Track54_32"
    INDEX 01 00:31:46
  TRACK 33 AUDIO
    TITLE "Step3_Track54_33"
    INDEX 01 00:32:36
  TRACK 34 AUDIO
    TITLE "Step3_Track54_34"
    INDEX 01 00:32:44
  TRACK 35 AUDIO
    TITLE "Step3_Track54_35"
    INDEX 01 00:34:74
  TRACK 36 AUDIO
    TITLE "Step3_Track54_36"
    INDEX 01 00:35:15
  TRACK 37 AUDIO
    TITLE "Step3_Track54_37"
    INDEX 01 00:36:18
  TRACK 38 AUDIO
    TITLE "Step3_Track54_38"
    INDEX 01 00:36:22
  TRACK 39 AUDIO
    TITLE "Step3_Track54_39"
    INDEX 01 00:38:19
  TRACK 40 AUDIO
    TITLE "Step3_Track54_40"
    INDEX 01 00:38:48
  TRACK 41 AUDIO
    TITLE "Step3_Track54_41"
    INDEX 01 00:39:44
  TRACK 42 AUDIO
    TITLE "Step3_Track54_42"
    INDEX 01 00:39:51
  TRACK 43 AUDIO
    TITLE "Step3_Track54_43"
    INDEX 01 00:42:34
